<svg width="40" height="40" viewBox="0 0 100 100" fill="none" xmlns="http://www.w3.org/2000/svg">
<path d="M39.7125 34.375H25C20.0272 34.375 15.2581 36.3504 11.7417 39.8667C8.22544 43.3831 6.25 48.1522 6.25 53.125C6.25 58.0978 8.22544 62.8669 11.7417 66.3833C15.2581 69.8996 20.0272 71.875 25 71.875H43.75C46.7505 71.8766 49.7075 71.158 52.3727 69.7798C55.0379 68.4015 57.3333 66.4037 59.0663 63.9543C60.7993 61.5049 61.9191 58.6754 62.3317 55.7034C62.7443 52.7315 62.4377 49.7039 61.4375 46.875H56.25C55.7125 46.875 55.1875 46.9375 54.6875 47.0688C55.7416 48.9719 56.2807 51.1172 56.2515 53.2926C56.2223 55.468 55.6259 57.598 54.5212 59.4723C53.4165 61.3465 51.8417 62.8999 49.9527 63.979C48.0636 65.0581 45.9256 65.6255 43.75 65.625H25C21.6848 65.625 18.5054 64.308 16.1612 61.9638C13.817 59.6196 12.5 56.4402 12.5 53.125C12.5 49.8098 13.817 46.6304 16.1612 44.2862C18.5054 41.942 21.6848 40.625 25 40.625H34.5937C35.9562 38.275 37.6813 36.1625 39.7125 34.375Z" fill="black"/>
<path d="M56.2501 34.375C53.2496 34.3734 50.2926 35.092 47.6274 36.4702C44.9622 37.8485 42.6667 39.8463 40.9338 42.2957C39.2008 44.7451 38.081 47.5746 37.6684 50.5466C37.2558 53.5186 37.5624 56.5461 38.5626 59.375H45.4251C44.328 57.4748 43.7504 55.3193 43.7504 53.1251C43.7504 50.9309 44.3279 48.7754 45.425 46.8751C46.5221 44.9749 48.1 43.3969 50.0002 42.2998C51.9004 41.2027 54.0559 40.6251 56.2501 40.625H75.0001C78.3153 40.625 81.4947 41.942 83.8389 44.2862C86.1831 46.6304 87.5001 49.8098 87.5001 53.125C87.5001 56.4402 86.1831 59.6196 83.8389 61.9638C81.4947 64.308 78.3153 65.625 75.0001 65.625H65.4063C64.0465 67.9713 62.3158 70.0819 60.2813 71.875H75.0001C77.4624 71.875 79.9005 71.39 82.1754 70.4477C84.4502 69.5055 86.5172 68.1244 88.2583 66.3833C89.9994 64.6422 91.3805 62.5752 92.3228 60.3003C93.2651 58.0255 93.7501 55.5873 93.7501 53.125C93.7501 50.6627 93.2651 48.2245 92.3228 45.9497C91.3805 43.6748 89.9994 41.6078 88.2583 39.8668C86.5172 38.1257 84.4502 36.7445 82.1754 35.8023C79.9005 34.86 77.4624 34.375 75.0001 34.375H56.2501Z" fill="black"/>
</svg>
