<svg width="100" height="100" viewBox="0 0 100 100" fill="none" xmlns="http://www.w3.org/2000/svg">
<path d="M25 25C20.0272 25 15.2581 26.9754 11.7417 30.4917C8.22544 34.0081 6.25 38.7772 6.25 43.75V81.25H43.75V43.75C43.75 38.7772 41.7746 34.0081 38.2583 30.4917C34.7419 26.9754 29.9728 25 25 25ZM25 18.75H75C81.6304 18.75 87.9893 21.3839 92.6777 26.0723C97.3661 30.7607 100 37.1196 100 43.75V81.25C100 82.9076 99.3415 84.4973 98.1694 85.6694C96.9973 86.8415 95.4076 87.5 93.75 87.5H6.25C4.5924 87.5 3.00269 86.8415 1.83058 85.6694C0.65848 84.4973 0 82.9076 0 81.25V43.75C0 37.1196 2.63392 30.7607 7.32233 26.0723C12.0107 21.3839 18.3696 18.75 25 18.75ZM41.5375 25C44.2005 27.3436 46.3329 30.2284 47.7922 33.4617C49.2515 36.6951 50.0042 40.2026 50 43.75V81.25H93.75V43.75C93.75 38.7772 91.7746 34.0081 88.2583 30.4917C84.7419 26.9754 79.9728 25 75 25H41.5375Z" fill="white"/>
<path d="M73.7063 53.125H56.25V46.875H87.5C88.3288 46.875 89.1237 47.2042 89.7097 47.7903C90.2958 48.3763 90.625 49.1712 90.625 50V56.25C90.625 57.0788 90.2958 57.8737 89.7097 58.4597C89.1237 59.0458 88.3288 59.375 87.5 59.375H81.25C80.8393 59.3757 80.4326 59.2955 80.0529 59.1389C79.6733 58.9824 79.3282 58.7525 79.0375 58.4625L73.7063 53.125ZM31.25 43.75C31.25 47.2 28.45 43.75 25 43.75C21.55 43.75 18.75 47.2 18.75 43.75C18.75 42.0924 19.4085 40.5027 20.5806 39.3306C21.7527 38.1585 23.3424 37.5 25 37.5C26.6576 37.5 28.2473 38.1585 29.4194 39.3306C30.5915 40.5027 31.25 42.0924 31.25 43.75Z" fill="white"/>
</svg>
